<?xml version="1.0" encoding="UTF-8" standalone="no"?>
<svg width="32px" height="32px" viewBox="0 0 32 32" version="1.1" xmlns="http://www.w3.org/2000/svg" xmlns:xlink="http://www.w3.org/1999/xlink" xmlns:sketch="http://www.bohemiancoding.com/sketch/ns">
    <!-- Generator: Sketch 3.3 (11970) - http://www.bohemiancoding.com/sketch -->
    <title>favicon-32x32</title>
    <desc>Created with Sketch.</desc>
    <defs></defs>
    <g id="Page-1" stroke="none" stroke-width="1" fill="none" fill-rule="evenodd" sketch:type="MSPage">
        <g id="favicons" sketch:type="MSArtboardGroup" transform="translate(-153.000000, -135.000000)" fill="#000000">
            <g id="favicon-32x32" sketch:type="MSLayerGroup" transform="translate(153.000000, 135.000000)">
                <path d="M6.291226,28.7187433 C2.46692855,25.7950507 0,21.1856164 0,16 C0,7.163444 7.163444,0 16,0 C24.836556,0 32,7.163444 32,16 C32,24.836556 24.836556,32 16,32 C13.1068021,32 10.39296,31.2320869 8.05117453,29.8889617 C8.69339971,29.0521863 9.58538721,27.8117448 9.7875894,27.583664 C10.0692716,27.2659309 10.3220595,26.9445921 10.5459607,26.6196379 C10.7698619,26.2946836 10.9901485,25.9372393 11.206827,25.5472942 C11.4235056,25.1573491 11.7519888,23.5635744 12.0408936,22.9714355 L12.0583496,9.44641113 C12.0583496,9.44641113 12.7756847,9.45594992 13.1343523,9.46071931 C13.4930198,9.46548871 14.0067139,9.51013184 14.0067139,9.51013184 L14.0264893,7.98254395 L7.98864746,8.00390625 L8.03283691,9.46386719 L10.00354,9.44934082 L10.0050512,20.6478627 C10.0158851,21.1244623 10.0122739,21.5324543 10.0050512,21.871851 C10.0016692,22.0307774 10.0099928,22.1809943 10.0168348,22.3225024 C10.0246042,22.4831931 10.030463,22.632654 10.0151008,22.7708865 C9.99066312,22.9907824 7.28274212,27.2595143 6.291226,28.7187433 L6.291226,28.7187433 Z M18.0048828,23.0054932 L18.0103149,21.5582275 L20.0511475,21.5487061 L20.0100098,16.012207 L13.9616699,15.994751 L14.0241699,14.5279541 L20.0047607,14.4858398 L19.9856836,9.43720323 L18.0213425,9.46558104 L18.0152022,8.01081876 L24.0091599,8.00842985 L24.0245361,9.52819824 L22.0011479,9.49788353 C22.0011479,9.49788353 21.9941257,13.4666237 21.9970744,15.5906447 C22.000023,17.7146656 22.0246909,21.5544952 22.0246909,21.5544952 L23.9933472,21.5628662 L24.0007324,23.0102539 L18.0048828,23.0054932 Z" id="Oval-6" sketch:type="MSShapeGroup"></path>
            </g>
        </g>
    </g>
</svg>