<?xml version="1.0" encoding="UTF-8" standalone="no"?>
<svg width="48px" height="48px" viewBox="0 0 48 48" version="1.1" xmlns="http://www.w3.org/2000/svg" xmlns:xlink="http://www.w3.org/1999/xlink" xmlns:sketch="http://www.bohemiancoding.com/sketch/ns">
    <!-- Generator: Sketch 3.3 (11970) - http://www.bohemiancoding.com/sketch -->
    <title>favicon-48x48</title>
    <desc>Created with Sketch.</desc>
    <defs></defs>
    <g id="Page-1" stroke="none" stroke-width="1" fill="none" fill-rule="evenodd" sketch:type="MSPage">
        <g id="favicons" sketch:type="MSArtboardGroup" transform="translate(-205.000000, -136.000000)" fill="#000000">
            <g id="favicon-48x48" sketch:type="MSLayerGroup" transform="translate(205.000000, 135.000000)">
                <path d="M9.36475241,44.0227888 C3.66941121,39.6345503 0,32.7457936 0,25 C0,11.745166 10.745166,1 24,1 C37.254834,1 48,11.745166 48,25 C48,38.254834 37.254834,49 24,49 C19.2098938,49 14.7475492,47.5966861 11.0016552,45.1787475 C11.8016837,44.3885452 13.2268901,43.0028851 13.6363865,42.5408892 C14.0993021,42.0186255 14.5147329,41.4904349 14.8826915,40.9563015 C15.25065,40.4221681 15.6126683,39.8346302 15.9687572,39.1936702 C16.3248461,38.5527102 16.5390127,37.7984735 17.0137979,36.8251638 L17.0359672,14.0528861 L20.0054932,14.008728 L20.0003174,12.0115967 L10.9827881,12.032959 L10.9879639,14.0300903 L13.9937626,14 L13.9937626,32.7841019 C14.011567,33.5674975 14.0056322,34.2381215 13.9937626,34.7959942 C13.981893,35.3538668 14.0577565,35.8464491 14.010278,36.2737557 C13.9627995,36.7010624 13.8975175,37.1105585 13.8144301,37.5022563 C13.7313427,37.8939541 13.6185829,38.3153197 13.4761473,38.7663657 C13.3337117,39.2648901 13.1853436,39.7040599 13.0310384,40.083888 C12.8767332,40.4637162 12.6986914,40.813865 12.4969077,41.1343451 C12.295124,41.4548251 12.0518002,41.781235 11.7669291,42.1135847 C11.5152023,42.4072659 10.0071108,43.4951576 9.36475241,44.0227888 Z M27.9901136,37.095143 L28.0231981,34.9377678 L30.9537538,34.9011753 L30.915918,24.9822271 L19.8144982,25.0214024 L18.7454064,22.9399785 L30.9398399,23.0021866 L30.9246786,13.9534177 L28.009865,14.0915449 L28.0058278,12.0525667 L36.9668815,12.0084298 L36.9709187,14.0474081 L34.0348999,14.007948 L34.063975,34.9557056 L37.0671251,34.9590964 L37.0083874,37.057016 L27.9901136,37.095143 Z" id="Oval-4" sketch:type="MSShapeGroup"></path>
            </g>
        </g>
    </g>
</svg>