<?xml version="1.0" encoding="UTF-8"?>
<svg width="25px" height="15px" viewBox="0 0 25 15" version="1.1" xmlns="http://www.w3.org/2000/svg" xmlns:xlink="http://www.w3.org/1999/xlink">
    <!-- Generator: Sketch 55 (78076) - https://sketchapp.com -->
    <title>Group</title>
    <desc>Created with Sketch.</desc>
    <defs>
        <linearGradient x1="2.50510879%" y1="87.2563907%" x2="74.8119002%" y2="52.1503016%" id="linearGradient-1">
            <stop stop-color="#D6D6D6" offset="0%"></stop>
            <stop stop-color="#B5B5B5" offset="100%"></stop>
        </linearGradient>
        <linearGradient x1="26.9042473%" y1="51.4941903%" x2="96.4614256%" y2="86.917894%" id="linearGradient-2">
            <stop stop-color="#B0B0B0" offset="0%"></stop>
            <stop stop-color="#DBDBDB" offset="100%"></stop>
        </linearGradient>
    </defs>
    <g id="Page-1" stroke="none" stroke-width="1" fill="none" fill-rule="evenodd">
        <g id="Darkroom-4.0---Shaded-Action-Icon----Light-Copy" transform="translate(-9.000000, -15.000000)">
            <g id="Color-Mountains">
                <g id="Group" transform="translate(9.000000, 15.000000)">
                    <path d="M24.3989217,13.4063339 C24.494905,13.568077 24.5454545,13.7517238 24.5454545,13.9386885 C24.5454545,14.5248347 24.0591341,15 23.4592274,15 L14.7227776,15 C14.5340912,15 14.3486591,14.9519766 14.1847455,14.8606599 C13.6636008,14.5703288 13.4820148,13.9221883 13.7791618,13.4129976 L18.1107801,5.99034143 C18.2058711,5.82739347 18.3434633,5.69198013 18.5095436,5.59789251 C19.0285225,5.30388121 19.6931767,5.47660316 19.9940903,5.98367777 L24.3989217,13.4063339 Z" id="Fill-2" fill="url(#linearGradient-1)"></path>
                    <path d="M0.147579252,13.3642735 L7.5919857,0.538195113 C7.89269966,0.0200905708 8.55314468,-0.154186075 9.06713095,0.148937329 C9.2268577,0.243136182 9.35984454,0.377188564 9.45329463,0.538195113 L16.8977011,13.3642735 C17.198415,13.8823781 17.0255237,14.5481149 16.5115374,14.8512383 C16.3463538,14.9486553 16.1584244,15 15.9670466,15 L1.07823371,15 C0.482741677,15 0,14.5133904 0,13.913127 C0,13.7202159 0.0509365507,13.5307807 0.147579252,13.3642735 Z" id="Fill-3" fill="url(#linearGradient-2)"></path>
                    <path d="M15.3568368,10.7094955 L16.8977011,13.3642735 C17.198415,13.8823781 17.0255237,14.5481149 16.5115374,14.8512383 C16.3463538,14.9486553 16.1584244,15 15.9670466,15 L15.3449121,15 L14.7227776,15 C14.5340912,15 14.3486591,14.9519766 14.1847455,14.8606599 C13.6636008,14.5703288 13.4820148,13.9221883 13.7791618,13.4129976 L15.3568368,10.7094955 Z" id="Fill-5" fill="#424242" opacity="0.200000003"></path>
                </g>
            </g>
        </g>
    </g>
</svg>